Coordinates
version=1
nRows=6
nColumns=63
inDegrees=yes

Units are S.I. units (second, meters, Newtons, ...)
If the header above contains a line with 'inDegrees', this indicates whether rotational values are in degrees (yes) or radians (no).

endheader
time	pelvis_tilt	pelvis_list	pelvis_rotation	pelvis_tx	pelvis_ty	pelvis_tz	hip_flexion_r	hip_adduction_r	hip_rotation_r	knee_angle_r	knee_angle_r_beta	ankle_angle_r	subtalar_angle_r	mtp_angle_r	hip_flexion_l	hip_adduction_l	hip_rotation_l	knee_angle_l	knee_angle_l_beta	ankle_angle_l	subtalar_angle_l	mtp_angle_l	L5_S1_Flex_Ext	L5_S1_Lat_Bending	L5_S1_axial_rotation	L4_L5_Flex_Ext	L4_L5_Lat_Bending	L4_L5_axial_rotation	L3_L4_Flex_Ext	L3_L4_Lat_Bending	L3_L4_axial_rotation	L2_L3_Flex_Ext	L2_L3_Lat_Bending	L2_L3_axial_rotation	L1_L2_Flex_Ext	L1_L2_Lat_Bending	L1_L2_axial_rotation	L1_T12_Flex_Ext	L1_T12_Lat_Bending	L1_T12_axial_rotation	Abs_r3	Abs_r2	Abs_r1	Abs_t1	Abs_t2	neck_flexion	neck_bending	neck_rotation	arm_flex_r	arm_add_r	arm_rot_r	elbow_flex_r	pro_sup_r	wrist_flex_r	wrist_dev_r	arm_flex_l	arm_add_l	arm_rot_l	elbow_flex_l	pro_sup_l	wrist_flex_l	wrist_dev_l
0.000000	1.272835	-6.067360	85.283285	0.319986	0.822990	0.457674	-4.114395	-0.970208	8.253808	0.940741	0.016419	21.196302	-1.141066	0.000000	-2.050874	-0.891769	9.332643	3.953926	0.069009	30.192343	-13.337346	0.000000	0.072564	0.019989	2.039274	0.134759	0.026585	2.166728	0.119216	0.048601	2.166728	0.082934	0.048601	1.784365	0.067383	0.040761	1.656910	0.041463	0.030963	1.529455	0.518319	0.226118	11.341829	0.000000	0.000000	28.144721	1.036187	2.111794	5.250838	-7.013079	48.473167	32.279082	75.382598	-6.445382	-3.405142	13.696444	-6.312899	62.159624	35.712427	67.396759	7.873149	9.570659
0.022222	1.870106	-5.879919	85.463367	0.320224	0.823811	0.457621	-4.141149	-0.211631	8.628320	0.914348	0.015958	21.168622	-2.571861	0.000000	-1.933152	-1.510640	8.855253	5.107134	0.089136	29.858945	-13.431199	0.000000	0.059246	0.090685	2.094370	0.110026	0.120611	2.225268	0.097336	0.220491	2.225268	0.067713	0.220491	1.832574	0.055016	0.184924	1.701676	0.033853	0.140471	1.570777	0.423191	1.025844	11.648257	0.000000	0.000000	28.083905	0.917850	1.896721	5.174688	-7.210574	48.468150	32.261806	74.479562	-6.836479	-3.975180	14.625229	-5.879051	65.471557	35.137723	65.311891	7.803325	9.203344
0.044444	2.379603	-5.731760	85.603539	0.320532	0.824454	0.457619	-4.160238	0.440752	8.939892	0.880944	0.015375	21.123492	-3.810690	0.000000	-1.834410	-2.043637	8.451681	6.086151	0.106223	29.517123	-13.554126	0.000000	0.048218	0.149561	2.141208	0.089546	0.198916	2.275033	0.079218	0.363643	2.275033	0.055109	0.363643	1.873557	0.044775	0.304985	1.739731	0.027552	0.231670	1.605906	0.344417	1.691864	11.908755	0.000000	0.000000	28.035811	0.775722	1.640257	5.105048	-7.370148	48.401827	32.277420	73.479182	-7.120340	-4.418052	15.400195	-5.531064	68.098741	34.679741	63.668471	7.726679	8.883179
0.066667	2.808092	-5.619726	85.707834	0.320898	0.824935	0.457661	-4.171832	0.994787	9.195671	0.841749	0.014691	21.064416	-4.871801	0.000000	-1.751871	-2.496945	8.115963	6.905726	0.120528	29.172155	-13.701692	0.000000	0.039377	0.197631	2.180103	0.073128	0.262850	2.316360	0.064693	0.480521	2.316360	0.045005	0.480521	1.907590	0.036566	0.403010	1.771334	0.022500	0.306131	1.635077	0.281270	2.235644	12.125080	0.000000	0.000000	27.999147	0.614608	1.351436	5.041694	-7.496197	48.282631	32.323233	72.396048	-7.308023	-4.747714	16.033168	-5.261451	70.103482	34.328051	62.426483	7.645699	8.607512
0.088889	3.162339	-5.540662	85.780285	0.321310	0.825270	0.457740	-4.176104	1.458321	9.402800	0.797982	0.013927	20.994894	-5.769443	0.000000	-1.682757	-2.876743	7.842130	7.580612	0.132307	28.829319	-13.869463	0.000000	0.032622	0.235909	2.211372	0.060583	0.313759	2.349583	0.053595	0.573589	2.349583	0.037284	0.573589	1.934951	0.030293	0.481065	1.796740	0.018640	0.365423	1.658529	0.233018	2.668649	12.298990	0.000000	0.000000	27.972621	0.439312	1.039293	4.984400	-7.593119	48.118995	32.396557	71.244751	-7.410587	-4.978123	16.535969	-5.062724	71.548085	34.072229	61.545913	7.562874	8.373691
0.111111	3.449108	-5.491411	85.824923	0.321755	0.825473	0.457850	-4.173224	1.839200	9.568424	0.750863	0.013105	20.918430	-6.517864	0.000000	-1.624291	-3.189215	7.624219	8.125558	0.141818	28.493894	-14.053003	0.000000	0.027850	0.265408	2.235332	0.051721	0.352992	2.375040	0.045755	0.645312	2.375040	0.031830	0.645312	1.955915	0.025862	0.541219	1.816207	0.015914	0.411116	1.676499	0.198932	3.002344	12.432245	0.000000	0.000000	27.954943	0.254640	0.712863	4.932944	-7.665310	47.919352	32.494701	70.039882	-7.439090	-5.123236	16.920424	-4.927398	72.494856	33.901845	60.986746	7.480695	8.179064
